<svg width="604" height="100" viewBox="0 0 604 100" fill="none" xmlns="http://www.w3.org/2000/svg">
<path d="M153.515 77.2646C150.279 77.2646 147.351 76.7406 144.73 75.6924C142.11 74.6214 139.866 73.1517 137.997 71.2832C136.151 69.4147 134.716 67.2044 133.69 64.6523C132.688 62.0775 132.187 59.2975 132.187 56.3125C132.187 53.2819 132.494 50.4222 133.109 47.7334C133.747 45.0218 134.636 42.5267 135.775 40.248C136.915 37.9466 138.293 35.8844 139.911 34.0615C141.552 32.2386 143.363 30.6891 145.346 29.4131C147.351 28.1143 149.516 27.123 151.84 26.4395C154.187 25.7559 156.636 25.4141 159.188 25.4141C162.47 25.4141 165.421 25.9495 168.041 27.0205C170.661 28.0687 172.883 29.527 174.706 31.3955C176.552 33.264 177.965 35.4857 178.944 38.0605C179.947 40.6126 180.448 43.3812 180.448 46.3662C180.448 49.3968 180.141 52.2679 179.525 54.9795C178.91 57.6911 178.021 60.1976 176.859 62.499C175.72 64.7777 174.341 66.8285 172.724 68.6514C171.106 70.4743 169.294 72.0238 167.289 73.2998C165.307 74.5758 163.153 75.5557 160.829 76.2393C158.505 76.9229 156.067 77.2646 153.515 77.2646ZM169.853 47.1523C169.853 45.2839 169.579 43.5863 169.032 42.0596C168.508 40.5101 167.756 39.1885 166.776 38.0947C165.819 37.001 164.657 36.1579 163.29 35.5654C161.946 34.973 160.442 34.6768 158.778 34.6768C156.545 34.6768 154.449 35.2122 152.489 36.2832C150.552 37.3542 148.866 38.8353 147.431 40.7266C145.995 42.5951 144.856 44.8053 144.013 47.3574C143.192 49.8867 142.782 52.6211 142.782 55.5605C142.782 57.4518 143.044 59.1608 143.568 60.6875C144.115 62.2142 144.867 63.5244 145.824 64.6182C146.804 65.7119 147.978 66.555 149.345 67.1475C150.712 67.7399 152.239 68.0361 153.925 68.0361C156.158 68.0361 158.243 67.512 160.18 66.4639C162.117 65.3929 163.803 63.9232 165.238 62.0547C166.674 60.1862 167.802 57.9873 168.622 55.458C169.442 52.9059 169.853 50.1374 169.853 47.1523ZM204.442 68.1387C205.924 68.1387 207.313 67.7741 208.612 67.0449C209.911 66.3158 211.039 65.3132 211.996 64.0371C212.953 62.7611 213.705 61.2572 214.252 59.5254C214.799 57.7708 215.072 55.8682 215.072 53.8174C215.072 52.5186 214.901 51.3792 214.56 50.3994C214.218 49.4196 213.739 48.5993 213.124 47.9385C212.509 47.2777 211.768 46.7764 210.902 46.4346C210.036 46.0928 209.079 45.9219 208.031 45.9219C206.527 45.9219 205.115 46.2979 203.793 47.0498C202.494 47.8018 201.355 48.8271 200.375 50.126C199.418 51.402 198.655 52.9059 198.085 54.6377C197.515 56.3467 197.23 58.1696 197.23 60.1064C197.23 61.4053 197.401 62.556 197.743 63.5586C198.108 64.5384 198.609 65.3701 199.247 66.0537C199.885 66.7373 200.648 67.2614 201.537 67.626C202.426 67.9678 203.394 68.1387 204.442 68.1387ZM180.995 88.5098L191.693 38.2998H201.366L200.238 43.5293H200.854C202.152 41.752 203.782 40.3392 205.741 39.291C207.701 38.2201 209.945 37.6846 212.475 37.6846C214.366 37.6846 216.098 38.0264 217.67 38.71C219.265 39.3936 220.632 40.362 221.771 41.6152C222.911 42.8685 223.799 44.3838 224.438 46.1611C225.076 47.9385 225.395 49.9209 225.395 52.1084C225.395 55.6403 224.905 58.8988 223.925 61.8838C222.968 64.8688 221.635 67.4551 219.926 69.6426C218.24 71.8073 216.234 73.5049 213.91 74.7354C211.609 75.9658 209.125 76.5811 206.459 76.5811C205.092 76.5811 203.816 76.3988 202.631 76.0342C201.469 75.6696 200.432 75.1683 199.521 74.5303C198.609 73.8695 197.823 73.0833 197.162 72.1719C196.524 71.2604 196.057 70.2578 195.761 69.1641H195.146L190.976 88.5098H180.995ZM248.227 76.8203C245.788 76.8203 243.544 76.4557 241.493 75.7266C239.465 74.9974 237.711 73.9378 236.229 72.5479C234.748 71.1579 233.598 69.4603 232.777 67.4551C231.957 65.4499 231.547 63.1712 231.547 60.6191C231.547 57.1784 232.037 54.0339 233.017 51.1855C234.019 48.3372 235.421 45.8991 237.221 43.8711C239.021 41.8431 241.174 40.2708 243.681 39.1543C246.187 38.0378 248.944 37.4795 251.952 37.4795C254.208 37.4795 256.304 37.8555 258.241 38.6074C260.178 39.3366 261.853 40.3848 263.266 41.752C264.701 43.1191 265.818 44.7826 266.615 46.7422C267.436 48.679 267.846 50.8551 267.846 53.2705C267.846 53.6579 267.823 54.1136 267.777 54.6377C267.755 55.1618 267.72 55.7087 267.675 56.2783C267.629 56.8252 267.561 57.3835 267.47 57.9531C267.401 58.5 267.333 58.9899 267.265 59.4229H240.946C240.946 59.5596 240.935 59.7419 240.912 59.9697C240.912 60.1748 240.912 60.3457 240.912 60.4824C240.912 61.9408 241.117 63.2054 241.527 64.2764C241.96 65.3473 242.541 66.236 243.271 66.9424C244 67.6488 244.843 68.1842 245.8 68.5488C246.757 68.8906 247.771 69.0615 248.842 69.0615C250.779 69.0615 252.362 68.7083 253.593 68.002C254.823 67.2956 255.723 66.3499 256.293 65.165H265.863C265.43 66.8968 264.701 68.4805 263.676 69.916C262.673 71.3516 261.409 72.582 259.882 73.6074C258.378 74.6328 256.635 75.4303 254.652 76C252.693 76.5469 250.551 76.8203 248.227 76.8203ZM258.412 53.1338C258.435 53.0199 258.458 52.8376 258.48 52.5869C258.503 52.3135 258.515 52.0628 258.515 51.835C258.515 50.9007 258.355 50.0234 258.036 49.2031C257.717 48.3828 257.261 47.6764 256.669 47.084C256.076 46.4688 255.347 45.9902 254.481 45.6484C253.616 45.3066 252.636 45.1357 251.542 45.1357C250.403 45.1357 249.32 45.3294 248.295 45.7168C247.292 46.1042 246.381 46.651 245.561 47.3574C244.74 48.041 244.022 48.8841 243.407 49.8867C242.815 50.8665 242.359 51.9489 242.04 53.1338H258.412ZM280.014 38.2998H289.687L288.388 44.2812H289.003C289.618 43.3242 290.313 42.4469 291.088 41.6494C291.863 40.8291 292.729 40.1341 293.686 39.5645C294.643 38.972 295.691 38.5163 296.83 38.1973C297.992 37.8555 299.245 37.6846 300.59 37.6846C302.344 37.6846 303.917 37.9694 305.307 38.5391C306.697 39.1087 307.87 39.8949 308.827 40.8975C309.807 41.8773 310.548 43.0394 311.049 44.3838C311.573 45.7282 311.835 47.1751 311.835 48.7246C311.835 50.1146 311.664 51.6071 311.322 53.2021L306.503 76H296.557L301.068 54.8428C301.296 53.7946 301.41 52.8376 301.41 51.9717C301.41 50.2399 300.875 48.8271 299.804 47.7334C298.756 46.6169 297.252 46.0586 295.292 46.0586C294.175 46.0586 293.15 46.2523 292.216 46.6396C291.282 47.027 290.438 47.5625 289.687 48.2461C288.957 48.9297 288.342 49.75 287.841 50.707C287.34 51.6413 286.964 52.6667 286.713 53.7832L281.962 76H271.981L280.014 38.2998ZM335.111 76L345.604 26.6787H355.893L351.244 48.3828H351.859L374.384 26.6787H386.62L363.72 48.998L376.776 76H365.155L355.141 55.2871L348.578 61.5078L345.434 76H335.111ZM392.089 38.2998H402.035L394.037 76H384.091L392.089 38.2998ZM399.301 33.0361C398.412 33.0361 397.603 32.9108 396.874 32.6602C396.145 32.4095 395.518 32.0677 394.994 31.6348C394.493 31.2018 394.105 30.6891 393.832 30.0967C393.559 29.4814 393.422 28.832 393.422 28.1484C393.422 27.4193 393.559 26.7471 393.832 26.1318C394.105 25.4938 394.493 24.9469 394.994 24.4912C395.518 24.0127 396.145 23.6481 396.874 23.3975C397.603 23.124 398.412 22.9873 399.301 22.9873C400.189 22.9873 400.998 23.1126 401.728 23.3633C402.457 23.6139 403.072 23.9557 403.573 24.3887C404.097 24.8216 404.496 25.3343 404.77 25.9268C405.043 26.5192 405.18 27.1572 405.18 27.8408C405.18 28.57 405.043 29.2536 404.77 29.8916C404.496 30.5068 404.097 31.0537 403.573 31.5322C403.072 31.988 402.457 32.3525 401.728 32.626C400.998 32.8994 400.189 33.0361 399.301 33.0361ZM419.809 76.1367C418.214 76.1367 416.755 75.9544 415.434 75.5898C414.135 75.2253 413.007 74.7012 412.05 74.0176C411.116 73.334 410.386 72.5023 409.862 71.5225C409.361 70.5199 409.11 69.3805 409.11 68.1045C409.11 67.1247 409.236 66.0423 409.486 64.8574L413.451 46.5029H407.401L409.042 38.6758H415.058L417.04 29.3447H427.021L425.038 38.6758H433.07L431.396 46.5029H423.432L419.877 62.875C419.695 63.7865 419.604 64.5156 419.604 65.0625C419.604 66.2246 419.957 67.0791 420.663 67.626C421.369 68.1501 422.406 68.4121 423.773 68.4121C424.32 68.4121 424.844 68.4007 425.346 68.3779C425.87 68.3324 426.337 68.2754 426.747 68.207L425.209 75.6924C424.639 75.8291 423.876 75.9316 422.919 76C421.985 76.0911 420.948 76.1367 419.809 76.1367ZM462.328 51.2881C462.283 50.3994 462.077 49.6133 461.713 48.9297C461.348 48.2233 460.858 47.6309 460.243 47.1523C459.651 46.6738 458.944 46.3092 458.124 46.0586C457.326 45.7852 456.461 45.6484 455.526 45.6484C454.022 45.6484 452.644 46.0244 451.391 46.7764C450.137 47.5283 449.055 48.5537 448.144 49.8525C447.255 51.1514 446.56 52.6895 446.059 54.4668C445.557 56.2214 445.307 58.124 445.307 60.1748C445.307 61.6104 445.489 62.8522 445.854 63.9004C446.218 64.9486 446.719 65.8258 447.357 66.5322C448.018 67.2158 448.77 67.7285 449.613 68.0703C450.479 68.4121 451.413 68.583 452.416 68.583C454.285 68.583 455.891 68.1273 457.235 67.2158C458.58 66.3044 459.537 64.9827 460.106 63.251H469.643C469.324 65.1423 468.674 66.9196 467.694 68.583C466.737 70.2236 465.495 71.6592 463.969 72.8896C462.442 74.0973 460.653 75.0544 458.603 75.7607C456.575 76.4671 454.319 76.8203 451.835 76.8203C449.328 76.8203 447.061 76.4443 445.033 75.6924C443.005 74.9404 441.273 73.8809 439.838 72.5137C438.402 71.1237 437.297 69.4489 436.522 67.4893C435.748 65.5296 435.36 63.3421 435.36 60.9268C435.36 57.5771 435.862 54.4782 436.864 51.6299C437.867 48.7588 439.28 46.2751 441.103 44.1787C442.948 42.0824 445.147 40.4417 447.699 39.2568C450.251 38.0719 453.077 37.4795 456.176 37.4795C458.477 37.4795 460.551 37.8327 462.396 38.5391C464.242 39.2227 465.826 40.1341 467.147 41.2734C468.492 42.4128 469.551 43.7344 470.326 45.2383C471.101 46.7194 471.557 48.2461 471.693 49.8184C471.739 50.0462 471.762 50.2855 471.762 50.5361C471.762 50.7868 471.762 51.0374 471.762 51.2881H462.328ZM485.707 24.2178H495.688L491.415 43.9736H492.03C492.6 43.0622 493.249 42.2191 493.979 41.4443C494.73 40.6468 495.574 39.9632 496.508 39.3936C497.442 38.8239 498.479 38.3796 499.618 38.0605C500.757 37.7415 502.022 37.582 503.412 37.582C505.212 37.582 506.807 37.8669 508.197 38.4365C509.61 38.9834 510.806 39.7467 511.786 40.7266C512.766 41.7064 513.507 42.8571 514.008 44.1787C514.532 45.4775 514.794 46.8903 514.794 48.417C514.794 49.7386 514.634 51.2311 514.315 52.8945L509.462 76H499.516L504.027 54.5352C504.141 54.0339 504.221 53.5553 504.267 53.0996C504.335 52.6211 504.369 52.1426 504.369 51.6641C504.369 49.8639 503.811 48.4398 502.694 47.3916C501.578 46.3434 500.051 45.8193 498.114 45.8193C496.975 45.8193 495.927 46.013 494.97 46.4004C494.035 46.765 493.192 47.2891 492.44 47.9727C491.688 48.6562 491.05 49.4652 490.526 50.3994C490.025 51.3337 489.66 52.359 489.433 53.4756L484.647 76H474.667L485.707 24.2178ZM537.934 76.8203C535.495 76.8203 533.251 76.4557 531.2 75.7266C529.172 74.9974 527.418 73.9378 525.937 72.5479C524.455 71.1579 523.305 69.4603 522.484 67.4551C521.664 65.4499 521.254 63.1712 521.254 60.6191C521.254 57.1784 521.744 54.0339 522.724 51.1855C523.726 48.3372 525.128 45.8991 526.928 43.8711C528.728 41.8431 530.881 40.2708 533.388 39.1543C535.894 38.0378 538.651 37.4795 541.659 37.4795C543.915 37.4795 546.011 37.8555 547.948 38.6074C549.885 39.3366 551.56 40.3848 552.973 41.752C554.408 43.1191 555.525 44.7826 556.322 46.7422C557.143 48.679 557.553 50.8551 557.553 53.2705C557.553 53.6579 557.53 54.1136 557.484 54.6377C557.462 55.1618 557.427 55.7087 557.382 56.2783C557.336 56.8252 557.268 57.3835 557.177 57.9531C557.108 58.5 557.04 58.9899 556.972 59.4229H530.653C530.653 59.5596 530.642 59.7419 530.619 59.9697C530.619 60.1748 530.619 60.3457 530.619 60.4824C530.619 61.9408 530.824 63.2054 531.234 64.2764C531.667 65.3473 532.248 66.236 532.978 66.9424C533.707 67.6488 534.55 68.1842 535.507 68.5488C536.464 68.8906 537.478 69.0615 538.549 69.0615C540.486 69.0615 542.069 68.7083 543.3 68.002C544.53 67.2956 545.43 66.3499 546 65.165H555.57C555.137 66.8968 554.408 68.4805 553.383 69.916C552.38 71.3516 551.116 72.582 549.589 73.6074C548.085 74.6328 546.342 75.4303 544.359 76C542.4 76.5469 540.258 76.8203 537.934 76.8203ZM548.119 53.1338C548.142 53.0199 548.165 52.8376 548.188 52.5869C548.21 52.3135 548.222 52.0628 548.222 51.835C548.222 50.9007 548.062 50.0234 547.743 49.2031C547.424 48.3828 546.968 47.6764 546.376 47.084C545.784 46.4688 545.054 45.9902 544.188 45.6484C543.323 45.3066 542.343 45.1357 541.249 45.1357C540.11 45.1357 539.027 45.3294 538.002 45.7168C536.999 46.1042 536.088 46.651 535.268 47.3574C534.447 48.041 533.729 48.8841 533.114 49.8867C532.522 50.8665 532.066 51.9489 531.747 53.1338H548.119ZM569.721 38.2998H579.394L578.095 44.2812H578.71C579.325 43.3242 580.02 42.4469 580.795 41.6494C581.57 40.8291 582.436 40.1341 583.393 39.5645C584.35 38.972 585.398 38.5163 586.537 38.1973C587.699 37.8555 588.952 37.6846 590.297 37.6846C592.051 37.6846 593.624 37.9694 595.014 38.5391C596.404 39.1087 597.577 39.8949 598.534 40.8975C599.514 41.8773 600.255 43.0394 600.756 44.3838C601.28 45.7282 601.542 47.1751 601.542 48.7246C601.542 50.1146 601.371 51.6071 601.029 53.2021L596.21 76H586.264L590.775 54.8428C591.003 53.7946 591.117 52.8376 591.117 51.9717C591.117 50.2399 590.582 48.8271 589.511 47.7334C588.463 46.6169 586.959 46.0586 584.999 46.0586C583.882 46.0586 582.857 46.2523 581.923 46.6396C580.989 47.027 580.146 47.5625 579.394 48.2461C578.664 48.9297 578.049 49.75 577.548 50.707C577.047 51.6413 576.671 52.6667 576.42 53.7832L571.669 76H561.688L569.721 38.2998Z" fill="white"/>
<path fill-rule="evenodd" clip-rule="evenodd" d="M98.7269 58C97.992 62.5701 96.6377 66.933 94.7529 71H3.97399C2.08919 66.933 0.734915 62.5701 0 58H98.7269ZM49.3634 100C36.4134 100 24.6133 95.0768 15.7326 87H82.9943C74.1136 95.0768 62.3134 100 49.3634 100ZM82.9943 13C74.1136 4.92318 62.3134 0 49.3634 0C36.4134 0 24.6133 4.92318 15.7326 13H82.9943ZM94.7529 29C96.6377 33.067 97.992 37.4299 98.7269 42H0C0.734914 37.4299 2.08919 33.067 3.97399 29H94.7529Z" fill="#E05050"/>
</svg>
